Coordinates
version=1
nRows=19
nColumns=33
inDegrees=yes

Units are S.I. units (second, meters, Newtons, ...)
Angles are in degrees.

endheader
time	ground_thorax_rot_x	ground_thorax_rot_y	ground_thorax_rot_z	ground_thorax_tx	ground_thorax_ty	ground_thorax_tz	clav_prot_r	clav_elev_r	scapula_abduction_r	scapula_elevation_r	scapula_upward_rot_r	scapula_winging_r	shoulder_elv_r	plane_of_elev_r	axial_rot_r	elbow_flexion_r	pro_sup_r	wrist_flex_r	wrist_dev_r	clav_prot_l	clav_elev_l	scapula_abduction_l	scapula_elevation_l	scapula_upward_rot_l	scapula_winging_l	shoulder_elv_l	plane_of_elev_l	axial_rot_l	elbow_flexion_l	pro_sup_l	wrist_flex_l	wrist_dev_l	
8.1900	-27.562426	-33.602060	49.105303	-83.519741	785.890940	-5.911042	6.541341	-45.000000	35.522205	-45.000000	-44.890919	-2255.398386	-2637.056155	150.017796	-111.016957	1092.839660	-320.837479	17.958322	9.659319	15.148071	37.771944	-31.164346	-45.000000	-45.000000	2236.205345	-2619.094567	135.737313	-180.000000	-353.857809	400.949948	10.457999	-20.772138	
8.2000	-27.698893	-33.474801	48.870123	-84.526899	786.279082	-6.003204	6.532628	-45.000000	35.563824	-45.000000	-44.816943	-2255.422272	-2636.945395	149.914376	-111.210745	1092.917897	-320.669907	17.985675	9.598948	15.173075	37.789483	-31.284836	-45.000000	-45.000000	2236.300314	-2618.991886	135.701461	-180.000000	-353.694365	400.855839	10.427138	-20.821344	
8.2100	-27.842402	-33.333764	48.619992	-85.604642	786.681232	-6.101363	6.523490	-45.000000	35.604282	-45.000000	-44.711443	-2255.451212	-2636.833583	149.815031	-111.395760	1092.995480	-320.483062	18.008456	9.537468	15.201589	37.806783	-31.406097	-45.000000	-45.000000	2236.392579	-2618.878069	135.666514	-180.000000	-353.518198	400.770595	10.389918	-20.880934	
8.2200	-28.000643	-33.170299	48.342391	-86.756130	787.096569	-6.203017	6.512672	-45.000000	35.663793	-45.000000	-44.548340	-2255.486821	-2636.726998	149.730685	-111.561765	1093.070003	-320.273647	18.032944	9.473081	15.229763	37.827120	-31.541728	-45.000000	-45.000000	2236.485701	-2618.760898	135.625895	-180.000000	-353.340251	400.686292	10.347199	-20.935007	
8.2300	-28.171326	-32.988876	48.036178	-87.983966	787.524963	-6.305685	6.498700	-45.000000	35.736454	-45.000000	-44.336966	-2255.533473	-2636.620815	149.649002	-111.711683	1093.154605	-320.042345	18.056064	9.404216	15.258940	37.840206	-31.688852	-45.000000	-45.000000	2236.586652	-2618.642817	135.575034	-180.000000	-353.169418	400.596856	10.303613	-20.991612	
8.2400	-28.360397	-32.784946	47.690967	-89.290199	787.966979	-6.407183	6.481798	-45.000000	35.834176	-45.000000	-44.061014	-2255.592564	-2636.519113	149.577820	-111.841328	1093.250096	-319.787352	18.082547	9.331011	15.287400	37.847409	-31.851890	-45.000000	-45.000000	2236.695018	-2618.527393	135.512672	-180.000000	-353.005823	400.499128	10.257489	-21.042973	
8.2500	-28.558599	-32.566548	47.322165	-90.675904	788.423573	-6.505928	6.461477	-45.000000	35.940152	-45.000000	-43.747981	-2255.663948	-2636.410227	149.507528	-111.962559	1093.363672	-319.508057	18.111107	9.251479	15.318261	37.849977	-32.022443	-45.000000	-45.000000	2236.811644	-2618.412385	135.444533	-180.000000	-352.842450	400.389621	10.208622	-21.094043	
8.2600	-28.767710	-32.330586	46.928525	-92.141320	788.895956	-6.601163	6.440352	-45.000000	36.060096	-45.000000	-43.389621	-2255.744971	-2636.298766	149.447155	-112.074318	1093.486774	-319.199528	18.142475	9.168565	15.350581	37.854594	-32.198970	-45.000000	-45.000000	2236.928054	-2618.294255	135.375214	-180.000000	-352.674007	400.267118	10.153619	-21.141028	
8.2700	-28.970862	-32.090349	46.540120	-93.686045	789.385439	-6.692914	6.419984	-45.000000	36.170542	-45.000000	-43.031513	-2255.830146	-2636.167384	149.388300	-112.184981	1093.625303	-318.856637	18.176338	9.078939	15.391221	37.878348	-32.361543	-45.000000	-45.000000	2237.032755	-2618.164793	135.321556	-180.000000	-352.487855	400.128183	10.089216	-21.185790	
8.2800	-29.173496	-31.839309	46.145089	-95.309036	789.893289	-6.781779	6.402407	-45.000000	36.279345	-45.000000	-42.655888	-2255.919295	-2636.025823	149.336259	-112.298828	1093.769644	-318.473770	18.211928	8.986391	15.434297	37.916157	-32.515725	-45.000000	-45.000000	2237.124874	-2618.023351	135.280778	-180.000000	-352.283210	399.974307	10.015601	-21.228668	
8.2900	-29.371601	-31.580939	45.752188	-97.008743	790.420662	-6.868511	6.386094	-45.000000	36.380717	-45.000000	-42.286896	-2256.011696	-2635.869998	149.281900	-112.423518	1093.921818	-318.050146	18.248168	8.888544	15.479225	37.963846	-32.663765	-45.000000	-45.000000	2237.213528	-2617.873037	135.247735	-180.000000	-352.064511	399.807307	9.934785	-21.270323	
8.3000	-29.577516	-31.307364	45.339108	-98.783238	790.968616	-6.953647	6.369635	-45.000000	36.490566	-45.000000	-41.898975	-2256.109754	-2635.717907	149.227060	-112.560953	1094.069390	-317.588447	18.281556	8.789464	15.517255	38.001164	-32.823540	-45.000000	-45.000000	2237.313686	-2617.722485	135.205620	-180.000000	-351.850103	399.633012	9.851738	-21.310908	
8.3100	-29.781253	-31.027554	44.922874	-100.630481	791.538154	-7.037183	6.352555	-45.000000	36.599996	-45.000000	-41.520086	-2256.211967	-2635.557937	149.165709	-112.710542	1094.223315	-317.093222	18.313890	8.685189	15.554061	38.035881	-32.985424	-45.000000	-45.000000	2237.423879	-2617.572131	135.157799	-180.000000	-351.641764	399.451307	9.765722	-21.348519	
8.3200	-29.993428	-30.733003	44.485813	-102.548146	792.130177	-7.118489	6.334154	-45.000000	36.718534	-45.000000	-41.122846	-2256.320883	-2635.402424	149.102198	-112.874690	1094.371743	-316.569233	18.342780	8.579879	15.583457	38.054888	-33.162056	-45.000000	-45.000000	2237.550924	-2617.424940	135.096929	-180.000000	-351.443511	399.263560	9.678899	-21.384395	
8.3300	-30.202783	-30.433956	44.048459	-104.533796	792.745474	-7.196385	6.315040	-45.000000	36.836240	-45.000000	-40.732890	-2256.434504	-2635.239391	149.034110	-113.049753	1094.524345	-316.020226	18.369877	8.470049	15.612897	38.070739	-33.340614	-45.000000	-45.000000	2237.689332	-2617.279105	135.031687	-180.000000	-351.251664	399.065254	9.589568	-21.416639	
8.3400	-30.414054	-30.127520	43.602823	-106.584764	793.384654	-7.269395	6.295564	-45.000000	36.958242	-45.000000	-40.336217	-2256.552918	-2635.073812	148.964510	-113.236787	1094.675246	-315.448139	18.394401	8.358124	15.639268	38.081080	-33.524496	-45.000000	-45.000000	2237.837637	-2617.133830	134.962107	-180.000000	-351.069030	398.853562	9.499315	-21.445330	
8.3500	-30.612483	-29.825841	43.170841	-108.698338	794.048140	-7.336015	6.277922	-45.000000	37.075431	-45.000000	-39.961722	-2256.673278	-2634.889103	148.891770	-113.431607	1094.842763	-314.851223	18.421333	8.239786	15.671575	38.104235	-33.694272	-45.000000	-45.000000	2237.981508	-2616.984302	134.901211	-180.000000	-350.891277	398.620996	9.406374	-21.467787	
8.3600	-30.806905	-29.522744	42.739982	-110.871407	794.736063	-7.394975	6.262296	-45.000000	37.193218	-45.000000	-39.595101	-2256.796458	-2634.694737	148.816861	-113.639173	1095.018977	-314.225770	18.448674	8.117558	15.703821	38.129722	-33.859783	-45.000000	-45.000000	2238.126127	-2616.830962	134.843513	-180.000000	-350.722374	398.364482	9.313919	-21.485085	
8.3700	-30.992105	-29.224958	42.318810	-113.100537	795.448281	-7.445364	6.249441	-45.000000	37.307941	-45.000000	-39.250821	-2256.921722	-2634.488508	148.737860	-113.856620	1095.209822	-313.566990	18.476559	7.989458	15.739064	38.158803	-34.015382	-45.000000	-45.000000	2238.272732	-2616.676377	134.789402	-180.000000	-350.564577	398.080129	9.222779	-21.495925	
